<?xml version="1.0" encoding="utf-8"?>
<!-- Generator: Adobe Illustrator 18.1.1, SVG Export Plug-In . SVG Version: 6.00 Build 0)  -->
<svg version="1.1" id="Layer_1" xmlns="http://www.w3.org/2000/svg"
  xmlns:xlink="http://www.w3.org/1999/xlink" x="0px" y="0px"
  viewBox="0 0 290 80" enable-background="new 0 0 290 80" xml:space="preserve">
<g>
	<circle fill="#E02B28" cx="27.9" cy="34.2" r="24.3"/>
  <g>
		<polygon fill="#FFFFFF"
      points="36.9,22.8 29.1,27.4 29.1,30.3 36.9,25.7 42.2,28.7 42.2,44 44.8,45.5 44.8,27.3 		"/>
    <polygon fill="#FFFFFF"
      points="37,28.7 29.1,33.3 29.1,36.5 37,32 37,41 39.6,42.5 39.6,30.2 		"/>
    <polygon fill="#FFFFFF"
      points="10.9,27.3 10.9,45.5 13.6,44 13.6,28.7 18.8,25.7 26.6,30.3 26.6,27.4 18.8,22.8 		"/>
    <polygon fill="#FFFFFF"
      points="16.1,30.2 16.1,42.5 18.8,41 18.8,32 26.6,36.5 26.6,33.3 18.8,28.7 		"/>
	</g>
</g>
  <g>
	<g>
		<path d="M283.9,23.3c0.5,0,0.9,0.1,1.3,0.4c0.4,0.2,0.8,0.6,1,1c0.2,0.4,0.4,0.9,0.4,1.4c0,0.5-0.1,0.9-0.4,1.4
			c-0.2,0.4-0.6,0.8-1,1c-0.4,0.2-0.9,0.4-1.4,0.4c-0.5,0-0.9-0.1-1.4-0.4c-0.4-0.2-0.8-0.6-1-1c-0.2-0.4-0.4-0.9-0.4-1.4
			c0-0.5,0.1-0.9,0.4-1.4c0.2-0.4,0.6-0.8,1-1C283,23.4,283.4,23.3,283.9,23.3z M283.9,23.8c-0.4,0-0.8,0.1-1.1,0.3
			s-0.6,0.5-0.9,0.8c-0.2,0.4-0.3,0.7-0.3,1.1c0,0.4,0.1,0.8,0.3,1.1c0.2,0.4,0.5,0.6,0.8,0.8c0.4,0.2,0.7,0.3,1.1,0.3
			c0.4,0,0.8-0.1,1.1-0.3c0.4-0.2,0.6-0.5,0.8-0.8c0.2-0.4,0.3-0.7,0.3-1.1c0-0.4-0.1-0.8-0.3-1.1c-0.2-0.4-0.5-0.6-0.9-0.8
			C284.6,23.9,284.3,23.8,283.9,23.8z M282.7,27.6l0-2.9l1,0c0.3,0,0.6,0,0.8,0.1c0.2,0.1,0.3,0.1,0.4,0.3c0.1,0.1,0.1,0.3,0.1,0.4
			c0,0.2-0.1,0.4-0.2,0.6c-0.2,0.2-0.4,0.2-0.6,0.3c0.1,0,0.2,0.1,0.2,0.2c0.1,0.1,0.3,0.3,0.4,0.6l0.4,0.6l-0.6,0l-0.3-0.5
			c-0.2-0.4-0.4-0.6-0.5-0.7c-0.1-0.1-0.2-0.1-0.4-0.1l-0.3,0l0,1.3L282.7,27.6z M283.2,25.9l0.6,0c0.3,0,0.5,0,0.6-0.1
			c0.1-0.1,0.2-0.2,0.2-0.3c0-0.1,0-0.2-0.1-0.2c0-0.1-0.1-0.1-0.2-0.2c-0.1,0-0.2-0.1-0.5-0.1l-0.5,0L283.2,25.9z"/>
	</g>
    <g>
		<path d="M83.3,53.7l-8.3,0c-0.9-1.1-1.3-4.3-1.3-9.5l0-0.1l0.1-2.4c0.1-3.3,0.1-5,0.1-5c0-1.3-0.9-2-2.6-2l0,19l-8.3,0l0-39.5
			l10.2,0c2.3,0,4.4,0.6,6.1,1.7c1.7,1.1,2.6,2.9,2.6,5.3l0,4.7c0,3.1-1.7,5.1-5.1,6.2c3.4,0.8,5.1,3,5.1,6.5l-0.1,4.3
			C81.7,49.2,82.2,52.8,83.3,53.7z M73.8,27.8l0-6.5c0-1.4-0.8-2.1-2.5-2.1l0,10.7C72.9,29.9,73.8,29.2,73.8,27.8z"/>
      <path d="M84.2,47.3l0-19.2c0-4.5,3-6.8,8.9-6.7c2.3,0,4.3,0.5,6.1,1.6c1.7,1,2.6,2.7,2.6,4.9l0,19.7c0,4.3-2.9,6.5-8.7,6.5
			C87.1,54.1,84.2,51.8,84.2,47.3z M94.2,47.5l0-19.6c0-1-0.4-1.6-1.3-1.6c-0.9,0-1.3,0.5-1.3,1.6l0,19.6c0,1.1,0.4,1.6,1.3,1.6
			C93.8,49.2,94.2,48.6,94.2,47.5z"/>
      <path d="M109.5,52.6l-0.6,1.1l-5.7,0l0-39.5l7.5,0l0,8.5c0.9-0.8,2.4-1.2,4.7-1.2c1.4,0,2.6,0.4,3.7,1.1c1.1,0.8,1.7,1.9,1.7,3.3
			l0,23c0,1.6-0.7,2.9-2,3.8c-1.4,0.9-3,1.4-4.9,1.4C112.4,54.1,110.9,53.6,109.5,52.6z M113.3,47.7l0-19.8c0-1-0.4-1.5-1.3-1.5
			c-0.9,0-1.3,0.5-1.3,1.4l0,19.9c0,1,0.4,1.5,1.3,1.5C112.8,49.1,113.3,48.6,113.3,47.7z"/>
      <path d="M122.2,47.4l0-19.2c0-4.5,3-6.8,8.9-6.7c2.3,0,4.3,0.5,6.1,1.6c1.7,1,2.6,2.7,2.6,4.9l0,19.7c0,4.3-2.9,6.5-8.7,6.5
			C125.2,54.1,122.2,51.9,122.2,47.4z M132.3,47.6l0-19.6c0-1-0.4-1.6-1.3-1.6c-0.9,0-1.3,0.5-1.3,1.6l0,19.6c0,1.1,0.4,1.6,1.3,1.6
			C131.9,49.2,132.3,48.7,132.3,47.6z"/>
      <path d="M156.1,53.7l-4.7,0c-3.4,0-5.4-0.5-6.1-1.6c-0.7-1.1-1-3.1-1-6.1l0-19.5l-3.3,0l0-4.7l3.3,0l0-6.5l7.5,0l0,6.5l4,0l0,4.7
			l-4,0l0,19.5c0,0.9,0.3,1.6,0.8,1.9c0.5,0.3,1.7,0.5,3.5,0.5L156.1,53.7z"/>
      <path d="M185.2,53.7l-7.5,0l0-25.6c0-1-0.4-1.5-1.3-1.5c-0.9,0-1.3,0.5-1.3,1.4l0,25.6l-7.5,0l0-25.6c0-1-0.4-1.5-1.3-1.5
			c-0.9,0-1.3,0.5-1.3,1.4l0,25.7l-7.5,0l0-32l7.5,0l0,1.1c1-0.9,2.6-1.3,4.6-1.3c1.7,0,3.3,0.7,4.7,2.2c1.3-1.5,3.1-2.2,5.4-2.2
			c1.3,0,2.5,0.4,3.6,1.2c1.1,0.8,1.7,2,1.7,3.4L185.2,53.7z"/>
      <path d="M204.5,53.8l-6.6,0l0-1.2c-0.6,1.1-2.2,1.7-4.8,1.7c-4.1,0-6.1-1.7-6.1-5l0-6.4c0-1.4,0.5-2.7,1.5-3.7c1-1.1,3-2.4,6-4
			c1.7-0.9,2.6-1.7,2.6-2.2l0-4.7c0-1-0.4-1.6-1.3-1.6c-1,0-1.5,1.3-1.5,3.8c0,0.5,0,1.1,0.1,2c0.1,0.9,0.1,1.6,0.1,2l-7.2,0l0-6.4
			c0-4.3,3-6.5,8.9-6.5c5.6,0,8.3,2.3,8.3,6.8L204.5,53.8z M197.1,47.8l0-8.2c-1.7,0.4-2.6,1.2-2.6,2.4l0,5.8c0,1,0.4,1.5,1.3,1.5
			C196.6,49.2,197.1,48.7,197.1,47.8z"/>
      <path d="M206.3,40.9l7.5,0l0,6.8c0,1.1,0.4,1.6,1.3,1.6c0.8,0,1.3-1,1.3-3.1c0-2.7-0.5-4.4-1.5-5.2c-3.9-2.2-6.3-3.7-7.1-4.5
			c-0.8-0.9-1.2-2.1-1.2-3.8l0-4.3c0-4.5,2.9-6.8,8.7-6.7c5.7,0,8.5,2.2,8.5,6.5l0,6.3l-7.3,0l0.2-3.8c0-2.7-0.5-4-1.4-4
			c-0.9,0-1.4,0.8-1.4,2.5c0,1.7,0.2,3,0.6,3.9c0.4,0.9,2.7,2.4,6.9,4.6c1.7,1.3,2.6,3,2.6,5.2l0,4.8c0,4.5-3,6.8-8.9,6.7
			c-5.8,0-8.7-2.2-8.7-6.5L206.3,40.9z"/>
      <path d="M240.1,53.8l-4.7,0c-3.4,0-5.4-0.5-6.1-1.6c-0.7-1.1-1-3.1-1-6.1l0-19.5l-3.3,0l0-4.7l3.3,0l0-6.5l7.5,0l0,6.5l4,0l0,4.7
			l-4,0l0,19.5c0,0.9,0.3,1.6,0.8,1.9c0.5,0.3,1.7,0.5,3.5,0.5L240.1,53.8z"/>
      <path d="M259.1,40.2l-10,0l0,7.5c0,1.1,0.4,1.6,1.3,1.6c0.8,0,1.3-0.5,1.3-1.6l0-6.5l7.5,0l0,6.5c0,4.3-2.9,6.5-8.8,6.5
			c-5.8,0-8.7-2.3-8.7-6.8l0-19.2c0-4.5,2.9-6.8,8.7-6.7c5.9,0,8.8,2.2,8.8,6.5L259.1,40.2z M251.6,35.4l0-7.3c0-1-0.4-1.6-1.3-1.6
			c-0.9,0-1.3,0.5-1.3,1.6l0,7.3L251.6,35.4z"/>
      <path d="M278.5,35.1l-7.5,0l0-6.9c0-1-0.4-1.5-1.3-1.5c-0.9,0-1.3,0.5-1.3,1.4l0,25.7l-7.5,0l0-32l7.5,0l0,1.1
			c1-0.9,2.5-1.3,4.6-1.3c1.5,0,2.8,0.4,3.8,1.3c1.1,0.8,1.6,1.9,1.6,3.3L278.5,35.1z"/>
	</g>
</g>
  <g>
	<path fill="#010101" d="M68.8,64.1c-0.3-1.2-1.2-1.8-2.3-1.8c-2,0-2.8,1.7-2.8,3.3c0,1.6,0.8,3.3,2.8,3.3c1.4,0,2.3-1.1,2.4-2.4
		l0.7,0c-0.2,1.8-1.4,3-3.1,3c-2.4,0-3.5-1.9-3.5-3.9c0-2.1,1.2-3.9,3.5-3.9c1.4,0,2.8,0.9,3,2.4L68.8,64.1z"/>
    <path fill="#010101" d="M72.9,61.8l0.8,0l2.9,7.5l-0.8,0L75,67l-3.4,0l-0.9,2.3l-0.8,0L72.9,61.8z M71.8,66.4l3,0l-1.4-3.9
		L71.8,66.4z"/>
    <path fill="#010101" d="M77.3,61.8l2.6,0c2.3,0.1,3.4,1.3,3.4,3.8c0,2.5-1.2,3.7-3.5,3.8l-2.6,0L77.3,61.8z M78,68.7l1.5,0
		c2.2,0,3.1-0.9,3.1-3.1c0-2.2-0.9-3.2-3.1-3.1l-1.5,0L78,68.7z"/>
    <path fill="#010101" d="M83.6,69.5l3.2-7.8l0.5,0l-3.2,7.8L83.6,69.5z"/>
    <path fill="#010101" d="M93.5,64.1c-0.3-1.2-1.2-1.8-2.3-1.8c-2,0-2.8,1.7-2.8,3.3c0,1.6,0.8,3.3,2.8,3.3c1.4,0,2.3-1.1,2.4-2.4
		l0.7,0c-0.2,1.8-1.4,3-3.1,3c-2.4,0-3.5-1.9-3.5-3.9c0-2.1,1.2-3.9,3.5-3.9c1.4,0,2.8,0.9,3,2.4L93.5,64.1z"/>
    <path fill="#010101" d="M97.6,61.9l0.8,0l2.9,7.5l-0.8,0L99.7,67l-3.4,0l-0.9,2.3l-0.8,0L97.6,61.9z M96.5,66.4l3,0L98,62.6
		L96.5,66.4z"/>
    <path fill="#010101" d="M102,61.9l1.1,0l2.6,6.6l2.6-6.6l1.1,0l0,7.5l-0.7,0l0-6.5l0,0l-2.6,6.5l-0.7,0l-2.6-6.5l0,0l0,6.5l-0.7,0
		L102,61.9z"/>
    <path fill="#010101"
      d="M113.7,61.9l4.8,0l0,0.6l-4,0l0,2.7l3.6,0l0,0.6l-3.6,0l0,3.6l-0.7,0L113.7,61.9z"/>
    <path fill="#010101" d="M122.5,61.7c2.4,0,3.5,1.9,3.5,3.9c0,2.1-1.2,3.9-3.5,3.9c-2.4,0-3.5-1.9-3.5-3.9
		C119,63.6,120.2,61.7,122.5,61.7z M122.5,68.9c2,0,2.8-1.7,2.8-3.3c0-1.6-0.8-3.3-2.8-3.3c-2,0-2.8,1.7-2.8,3.3
		C119.7,67.3,120.5,68.9,122.5,68.9z"/>
    <path fill="#010101" d="M127.2,61.9l3.4,0c1.2,0,2.3,0.6,2.3,2c0,0.9-0.5,1.7-1.5,1.9l0,0c1,0.1,1.3,0.8,1.3,1.7
		c0,0.5,0,1.5,0.3,1.9l-0.8,0c-0.2-0.3-0.2-0.9-0.2-1.2c-0.1-1.1-0.1-2.2-1.5-2.2l-2.7,0l0,3.3l-0.7,0L127.2,61.9z M127.9,65.5
		l2.7,0c0.9,0,1.6-0.5,1.6-1.5c0-0.9-0.5-1.5-1.6-1.5l-2.7,0L127.9,65.5z"/>
    <path fill="#010101" d="M137.1,61.9l3.4,0c1.2,0,2.3,0.6,2.3,2c0,0.9-0.5,1.7-1.5,1.9l0,0c1,0.1,1.3,0.8,1.3,1.7
		c0,0.5,0,1.5,0.3,1.9l-0.8,0c-0.2-0.3-0.2-0.9-0.2-1.2c-0.1-1.1-0.1-2.2-1.5-2.2l-2.7,0l0,3.3l-0.7,0L137.1,61.9z M137.8,65.5
		l2.7,0c0.9,0,1.6-0.5,1.6-1.5c0-0.9-0.5-1.5-1.6-1.5l-2.7,0L137.8,65.5z"/>
    <path fill="#010101" d="M147.3,61.8c2.4,0,3.5,1.9,3.5,3.9c0,2.1-1.2,3.9-3.5,3.9c-2.4,0-3.5-1.9-3.5-3.9
		C143.7,63.6,144.9,61.8,147.3,61.8z M147.3,69c2,0,2.8-1.7,2.8-3.3c0-1.6-0.8-3.3-2.8-3.3c-2,0-2.8,1.7-2.8,3.3
		C144.4,67.3,145.3,69,147.3,69z"/>
    <path fill="#010101" d="M151.9,61.9l3.2,0c1.3,0,2.4,0.4,2.4,1.8c0,0.8-0.5,1.5-1.3,1.7l0,0c1,0.1,1.6,0.9,1.6,1.8
		c0,0.7-0.3,2.1-2.7,2.1l-3.2,0L151.9,61.9z M152.6,68.8l2.5,0c1.1,0,2-0.3,2-1.5c0-1-0.7-1.5-2-1.5l-2.5,0L152.6,68.8z M152.6,65.2
		l2.5,0c1.1,0,1.7-0.6,1.7-1.3c0-0.9-0.6-1.4-1.7-1.4l-2.5,0L152.6,65.2z"/>
    <path fill="#010101" d="M162.1,61.8c2.4,0,3.5,1.9,3.5,3.9c0,2.1-1.2,3.9-3.5,3.9c-2.4,0-3.5-1.9-3.5-3.9
		C158.5,63.6,159.7,61.8,162.1,61.8z M162.1,69c2,0,2.8-1.7,2.8-3.3c0-1.6-0.8-3.3-2.8-3.3c-2,0-2.8,1.7-2.8,3.3
		C159.2,67.3,160.1,69,162.1,69z"/>
    <path fill="#010101" d="M165.9,61.9l6,0l0,0.6l-2.6,0l0,6.9l-0.7,0l0-6.9l-2.6,0L165.9,61.9z"/>
    <path fill="#010101" d="M172.9,67c0,1.5,1.1,2,2.4,2c0.8,0,2-0.4,2-1.5c0-0.9-0.9-1.2-1.5-1.4l-1.7-0.4c-0.9-0.2-1.7-0.6-1.7-1.8
		c0-0.7,0.5-2.1,2.6-2.1c1.5,0,2.8,0.8,2.8,2.3l-0.7,0c0-1.1-1-1.7-2-1.7c-1,0-1.9,0.4-1.9,1.5c0,0.7,0.5,1,1.1,1.1l1.8,0.5
		c1.1,0.3,1.9,0.7,1.9,2c0,0.5-0.2,2.1-2.9,2.1c-1.8,0-3.1-0.8-3-2.6L172.9,67z"/>
</g>
</svg>
