<?xml version="1.0" encoding="utf-8"?>
<!-- Generator: Adobe Illustrator 22.0.1, SVG Export Plug-In . SVG Version: 6.00 Build 0)  -->
<svg version="1.1" id="Layer_1" opacity="0.1" xmlns="http://www.w3.org/2000/svg"
  xmlns:xlink="http://www.w3.org/1999/xlink"
  x="0px" y="0px" viewBox="0 0 562 624" style="enable-background:new 0 0 562 624;"
  xml:space="preserve">
<style type="text/css">
	.st0{display:none;}
	.st1{display:inline;fill:#939292;}
	.st2{fill:#939292;}
</style>
  <g class="st0">
	<path class="st1" d="M562,624H397.6V396.8H273c-76.9,0-87.5,64.7-91.9,127.6c-1.8,17.5-4.4,78.7-18.6,99.6H0
		c22.1-22.7,24.7-114.5,26.5-140.7c5.3-59.4,24.7-133.7,91.9-149.4v-1.7c-66.3-25.3-99-89.1-99-156.4C19.4,49.8,129,0,240.4,0H562
		V624z M397.6,130.2H266.9c-46,0-83.1,21-83.1,67.3c0,47.2,26.5,73.4,76,73.4h137.8L397.6,130.2L397.6,130.2z"/>
</g>
  <path class="st2" d="M333,1c104.8,0,221.1,41.4,221.1,199.1c0,81.1-35.2,136.6-127.7,171.8L578.8,623H358.6L237.9,403.6h-57.3V623
	H-16.7V1H333z M262.6,275.9c41.4,0,95.1-6.2,95.1-72.2c0-68.7-57.3-72.2-96.9-72.2h-80.2v144.5H262.6z"/>
</svg>
