<?xml version="1.0" encoding="utf-8"?>
<!-- Generator: Adobe Illustrator 22.0.1, SVG Export Plug-In . SVG Version: 6.00 Build 0)  -->
<svg version="1.1" id="Layer_1" xmlns="http://www.w3.org/2000/svg"
  xmlns:xlink="http://www.w3.org/1999/xlink" x="0px" y="0px"
  viewBox="0 0 488 85.7" style="enable-background:new 0 0 488 85.7;" xml:space="preserve">
<style type="text/css">
	.st0{display:none;}
	.st1{display:inline;}
	.st2{fill:#E2231A;}
	.st3{fill:#231F20;}
	.st4{fill:#ED1C24;}
</style>
  <g class="st0">
	<g class="st1">
		<path d="M34.9,24.5H64v7.6H44.4v6.4h17.9v7.4H44.4v7h20.1v8.2H34.9V24.5z"/>
    <path d="M89,61H78.1L66.6,24.5h9.9l7.1,27.2h0.1l7.2-27.1h9.9L89,61z"/>
    <path d="M120.6,23.7c11.5,0,18,8.4,18,19s-6.5,19-18,19s-18-8.4-18-19C102.7,32.2,109.1,23.7,120.6,23.7z M120.6,53.6
			c6.1,0,8.5-5.4,8.5-10.8S126.7,32,120.6,32s-8.5,5.4-8.5,10.8C112.2,48.2,114.5,53.6,120.6,53.6z"/>
    <path d="M144.3,24.5h9.5v28.3h17V61h-26.5V24.5z"/>
    <path d="M207.6,45.9c0,10.6-4.9,15.8-15.9,15.8s-15.9-5.3-15.9-15.8V24.5h9.5v22c0,4.7,1.7,7.1,6.4,7.1s6.4-2.4,6.4-7.1v-22h9.5
			V45.9z"/>
    <path d="M243.4,32.7h-10.9V61H223V32.7h-10.9v-8.2h31.3L243.4,32.7L243.4,32.7z"/>
    <path d="M248.1,24.5h9.5V61h-9.5V24.5z"/>
    <path d="M281.3,23.7c11.5,0,18,8.4,18,19s-6.5,19-18,19s-18-8.4-18-19C263.3,32.2,269.8,23.7,281.3,23.7z M281.3,53.6
			c6.1,0,8.5-5.4,8.5-10.8S287.4,32,281.3,32s-8.5,5.4-8.5,10.8S275.2,53.6,281.3,53.6z"/>
    <path d="M304.9,24.5h9.8L327.4,47h0.1V24.5h8.9V61h-9.8l-12.7-22.7h-0.1V61h-8.9V24.5z"/>
	</g>
    <g class="st1">
		<path d="M0-7.6V-9h21.2v1.5h-9.8v26.2H9.8V-7.6H0z"/>
      <path d="M25.2,5v13.7h-1.7V-9h1.7V3.6h17.7V-9h1.7v27.7h-1.7V5H25.2z"/>
      <path d="M68.7,17.2v1.5H49.9V-9h18.6v1.5H51.6V3.6h15.9v1.5H51.6v12.2h17.1V17.2z"/>
	</g>
    <g class="st1">
		<path d="M13.3,97.4C5,97.4,0.1,91,0.1,82.9S5,68.4,13.3,68.4s13.2,6.4,13.2,14.5C26.4,91,21.5,97.4,13.3,97.4z M13.3,96
			c7.2,0,11.4-5.9,11.4-13s-4.2-13-11.4-13C6,70,1.8,75.9,1.8,83C1.8,90,6,96,13.3,96z"/>
      <path d="M32.2,83.1v13.7h-1.7V69.1h17.4v1.5H32.2v11.1h14.1v1.5L32.2,83.1L32.2,83.1z"/>
      <path d="M62,69.1h11.6c4.8,0,8.8,1.8,8.8,7.1c0,3.7-2.2,6.5-5.9,7.1v0.1c4.1,0.5,5.1,3.1,5.4,5.9c0.3,2.9-0.2,6,0.9,7.4h-1.9
			c-1-1.9-0.4-5.1-0.7-7.8c-0.3-2.7-1.7-4.9-6.5-4.9h-9.9v12.6H62V69.1z M73.5,82.7c4,0,7.1-1.9,7.1-6.4c0-4.2-3.3-5.8-7.1-5.8h-9.9
			v12.2H73.5z"/>
      <path d="M98.7,97.4c-8.3,0-13.2-6.4-13.2-14.5s4.9-14.5,13.2-14.5s13.2,6.4,13.2,14.5C111.9,91,107,97.4,98.7,97.4z M98.7,96
			c7.2,0,11.4-5.9,11.4-13s-4.2-13-11.4-13c-7.3,0-11.5,5.9-11.5,13C87.3,90,91.5,96,98.7,96z"/>
      <path d="M115.9,69.1H127c6.6,0,8.7,3.6,8.7,7.2c0,3-2.2,5.5-5.4,5.9l0.1,0.1c0.7-0.1,6.2,1.2,6.2,6.8c0,5-3.9,7.8-9.7,7.8h-11.1
			L115.9,69.1L115.9,69.1z M117.6,81.6h9.4c4.6,0,7-2.3,7-5.7c0-4-3.3-5.4-7-5.4h-9.4V81.6z M117.6,95.3h9.4c4.9,0,8-2.2,8-6.3
			c0-4.7-4.3-5.9-8-5.9h-9.4V95.3z"/>
      <path d="M152.7,97.4c-8.3,0-13.2-6.4-13.2-14.5s4.9-14.5,13.2-14.5s13.2,6.4,13.2,14.5S161,97.4,152.7,97.4z M152.7,96
			c7.2,0,11.4-5.9,11.4-13s-4.2-13-11.4-13c-7.3,0-11.5,5.9-11.5,13C141.2,90,145.4,96,152.7,96z"/>
      <path d="M166.9,70.5V69h21.2v1.5h-9.8v26.2h-1.7V70.5H166.9z"/>
      <path d="M201.6,69.1h11.8c3.1,0,8.1,1.1,8.1,7.8c0,4.8-3.2,7.6-8.7,7.6h-9.5v12.3h-1.7L201.6,69.1L201.6,69.1z M203.3,83h9.7
			c5,0,6.7-3.3,6.7-6.2c0-2.1-0.9-6.2-6.5-6.2h-10V83H203.3z"/>
      <path d="M224.9,69.1h11.6c4.9,0,8.8,1.8,8.8,7.1c0,3.7-2.3,6.5-5.9,7.1v0.1c4.1,0.5,5.1,3.1,5.4,5.9c0.3,2.9-0.2,6,0.9,7.4h-1.9
			c-1-1.9-0.4-5.1-0.7-7.8c-0.3-2.7-1.7-4.9-6.5-4.9h-9.9v12.6H225V69.1H224.9z M236.5,82.7c4,0,7.1-1.9,7.1-6.4
			c0-4.2-3.3-5.8-7.1-5.8h-9.9v12.2H236.5z"/>
      <path d="M261.7,97.4c-8.3,0-13.2-6.4-13.2-14.5s4.9-14.5,13.2-14.5c8.3,0,13.2,6.4,13.2,14.5C274.8,91,269.9,97.4,261.7,97.4z
			 M261.7,96c7.2,0,11.4-5.9,11.4-13s-4.2-13-11.4-13c-7.3,0-11.5,5.9-11.5,13C250.2,90,254.4,96,261.7,96z"/>
      <path d="M302.9,83.2v13.6h-1.5v-5.9h-0.1c-1.4,4-5.6,6.6-10.5,6.6c-8.4,0-13-6.4-13-14.4c0-7.8,4.7-14.7,13.1-14.7
			c5.7,0,10.6,3.5,11.5,9.2h-1.6c-1.3-4.8-4.8-7.8-9.9-7.8c-7.5,0-11.4,6.3-11.4,13.2c0,7.1,3.8,12.9,11.4,12.9
			c6.6,0,10.7-4.5,10.5-11.3h-10.2v-1.5h11.7V83.2z"/>
      <path d="M308,69.1h11.6c4.8,0,8.8,1.8,8.8,7.1c0,3.7-2.2,6.5-5.9,7.1v0.1c4.1,0.5,5.1,3.1,5.4,5.9c0.3,2.9-0.2,6,0.9,7.4h-1.9
			c-1-1.9-0.4-5.1-0.7-7.8c-0.3-2.7-1.7-4.9-6.5-4.9h-9.9v12.6H308V69.1z M319.5,82.7c4,0,7.1-1.9,7.1-6.4c0-4.2-3.3-5.8-7.1-5.8
			h-9.9v12.2H319.5z"/>
      <path
        d="M342.9,69.1l10.9,27.7H352l-3.5-8.9h-13.3l-3.5,8.9h-1.8L341,69.1H342.9z M348,86.4l-6-15.7l0,0l-6.2,15.7H348z"/>
      <path d="M356.2,69.1h2.4l10.8,25.8h0.1l10.7-25.8h2.4v27.7H381V71.2h-0.1l-10.6,25.6h-1.7L358,71.2h-0.1v25.6h-1.7L356.2,69.1
			L356.2,69.1z"/>
      <path
        d="M388,69.1h2.4l10.8,25.8h0.1L412,69.1h2.4v27.7h-1.7V71.2h-0.1L402,96.8h-1.7l-10.7-25.6h-0.1v25.6H388V69.1z"/>
      <path d="M419.7,69.1h1.7v27.7h-1.7V69.1z"/>
      <path d="M426.7,69.1h2.1l17.5,25.4h0.1V69.1h1.7v27.7h-2l-17.6-25.6h-0.1v25.6h-1.7V69.1z"/>
      <path d="M477.5,83.2v13.6H476v-5.9h-0.1c-1.4,4-5.6,6.6-10.5,6.6c-8.4,0-13-6.4-13-14.4c0-7.8,4.7-14.7,13.1-14.7
			c5.7,0,10.6,3.5,11.5,9.2h-1.6c-1.3-4.8-4.8-7.8-9.9-7.8c-7.5,0-11.4,6.3-11.4,13.2c0,7.1,3.8,12.9,11.4,12.9
			c6.6,0,10.7-4.5,10.5-11.3h-10.2v-1.5h11.7V83.2z"/>
      <path d="M484.5,96.8v-4h2v4H484.5z"/>
	</g>
    <g class="st1">
		<path class="st2" d="M32.5,61H23V47.7h-7.2c-4.4,0-5.1,3.8-5.3,7.5c-0.1,1-0.3,4.6-1.1,5.8H0c1.3-1.3,1.4-6.7,1.5-8.2
			c0.3-3.5,1.4-7.8,5.3-8.7V44c-3.8-1.5-5.7-5.3-5.7-9.2c0-7.4,6.3-10.3,12.8-10.3h18.6V61z M23,32.1h-7.6c-2.7,0-4.8,1.2-4.8,3.9
			c0,2.8,1.5,4.3,4.4,4.3h8V32.1z"/>
	</g>
</g>
  <g>
	<g>
		<path class="st3" d="M12.4,18.6v24.6H9.9V18.6H1.4v-2.2h19.5v2.2H12.4z"/>
    <path class="st3" d="M44.7,43.2V30.6H28.2v12.6h-2.5V16.3h2.5v12h16.5v-12h2.5v26.8H44.7z"/>
    <path class="st3" d="M54.6,43.2V16.3h17.5v2.3h-15v9.6h13.6v2.4H57.2v10.2h15.9v2.4H54.6z"/>
    <path class="st4" d="M111.1,3.2c6.7,0,14.1,2.6,14.1,12.7c0,5.2-2.3,8.7-8.2,11l9.7,16h-14.1l-7.7-14h-3.7v14H88.8V3.2H111.1z
			 M106.6,20.8c2.6,0,6.1-0.4,6.1-4.6c0-4.4-3.7-4.6-6.2-4.6h-5.1v9.2H106.6z"/>
    <path class="st3" d="M131.4,43V3.2h31.5v8.7H144v5.9h17.6v8.6H144v7.9h20.6V43H131.4z"/>
    <path class="st3" d="M194.5,43h-13.1L168.1,3.2H181l7.1,24.4l7-24.4H208L194.5,43z"/>
    <path class="st3" d="M232.3,44.3c-12.7,0-21.2-8.1-21.2-21.2c0-10.5,6.2-21.3,21.4-21.3c14.5,0,21.3,10.1,21.3,21
			C253.8,33.4,247.1,44.3,232.3,44.3z M232.5,34.2c4.1,0,8.6-2.8,8.6-11.8c0-7.9-4.3-10.6-8.6-10.6c-5.2,0-8.8,4-8.8,11.4
			C223.7,30.2,226.8,34.2,232.5,34.2z"/>
    <path class="st3" d="M262.4,43V3.2h12.6v29.7h15.4v10H262.4z"/>
    <path class="st3" d="M308.2,3.2v25.2c0,3.9,2,5.9,5.5,5.9c3.6,0,5.5-2.1,5.5-6.2V3.2h12.7V27c0,11.4-8.1,17-18.3,17
			c-9.5,0-18-4.3-18-15.9V3.2H308.2z"/>
    <path class="st3" d="M359.7,13v30h-12.6V13H337V3.2h32.8V13H359.7z"/>
    <path class="st3" d="M375.7,43V3.2h12.6V43H375.7z"/>
    <path class="st3" d="M418,44.3c-12.7,0-21.2-8.1-21.2-21.2c0-10.5,6.2-21.3,21.4-21.3c14.5,0,21.3,10.1,21.3,21
			C439.6,33.4,432.9,44.3,418,44.3z M418.3,34.2c4.1,0,8.6-2.8,8.6-11.8c0-7.9-4.3-10.6-8.6-10.6c-5.2,0-8.8,4-8.8,11.4
			C409.5,30.2,412.6,34.2,418.3,34.2z"/>
    <path class="st3" d="M473,43l-13.1-22.8V43h-11.7V3.2h13.3l13.3,22.5V3.2h11.8V43H473z"/>
	</g>
    <g>
		<path class="st3" d="M14.4,56.5c7.1,0,11.5,5.1,11.5,13.8c0,6.9-3.1,14.4-11.5,14.4c-9.2,0-11.6-8.4-11.6-14.2
			C2.8,65.5,4.8,56.5,14.4,56.5z M14.3,82.4c6.9,0,8.9-7,8.9-12.2c0-4.1-1.7-11.5-8.8-11.5c-6.7,0-8.9,6.4-8.9,11.9
			C5.5,74,6.6,82.4,14.3,82.4z"/>
      <path class="st3" d="M34.5,59.4v9.1h13.5v2.2H34.5V84H32V57.1h17.6v2.2H34.5z"/>
      <path class="st3" d="M76,57.1c2.9,0,5.9,0.5,7.6,2.6c0.9,1.1,1.7,2.9,1.7,5.1c0,4.8-3.7,7.3-7.9,7.3L86.1,84h-3.2l-8.5-11.9h-6.3
			V84h-2.6V57.1H76z M68.2,69.9h8c3.2,0,6.7-0.8,6.7-5.2c0-0.5,0-1.8-0.8-3c-1.3-2.1-3.4-2.3-5.6-2.3h-8.3V69.9z"/>
      <path class="st3" d="M101.8,56.5c7.1,0,11.5,5.1,11.5,13.8c0,6.9-3.1,14.4-11.5,14.4c-9.2,0-11.6-8.4-11.6-14.2
			C90.2,65.5,92.2,56.5,101.8,56.5z M101.7,82.4c6.9,0,8.9-7,8.9-12.2c0-4.1-1.7-11.5-8.8-11.5c-6.7,0-8.9,6.4-8.9,11.9
			C92.8,74,94,82.4,101.7,82.4z"/>
      <path class="st3" d="M131.5,57.1c1.9,0,4.7,0.3,6.5,2.7c1.2,1.6,1.3,3.3,1.3,4c0,2.2-1.3,5.2-4.8,5.7c3.7,0.7,5.7,3.2,5.7,6.9
			c0,1.2-0.2,4.8-3.7,6.5c-1.8,1-4,1-6,1h-11.1V57.1H131.5z M122,68.5h8.7c4.4,0,5.9-2.1,5.9-4.7c0-0.5,0-1.6-0.8-2.6
			c-1.3-1.7-3.6-1.7-5.5-1.7H122V68.5z M131.5,81.7c3.7,0,6.1-1.7,6.1-5.2c0-1-0.2-3.3-2.7-4.8c-1.7-1-3.6-1-5.5-1H122v10.9H131.5z"
      />
      <path class="st3" d="M156.4,56.5c7.1,0,11.5,5.1,11.5,13.8c0,6.9-3.1,14.4-11.5,14.4c-9.2,0-11.6-8.4-11.6-14.2
			C144.8,65.5,146.8,56.5,156.4,56.5z M156.3,82.4c6.9,0,8.9-7,8.9-12.2c0-4.1-1.7-11.5-8.8-11.5c-6.7,0-8.9,6.4-8.9,11.9
			C147.5,74,148.6,82.4,156.3,82.4z"/>
      <path class="st3" d="M182.6,59.4V84H180V59.4h-8.4v-2.2H191v2.2H182.6z"/>
      <path class="st3" d="M217.6,57.1c4.7,0,6.2,0.5,7.7,2.1c0.7,0.8,1.7,2.5,1.7,5.2c0,1.7-0.5,3.5-1.5,4.9c-1.9,2.4-4.7,2.5-9.2,2.5
			h-7.1V84h-2.4V57.1H217.6z M209.3,69.7h9.4c3.3,0,5.9-1.3,5.9-5.2c0-0.5,0-1.8-0.8-3c-1.3-2.1-3.4-2.1-5.5-2.1h-9.1V69.7z"/>
      <path class="st3" d="M242.2,57.1c2.9,0,5.9,0.5,7.6,2.6c0.9,1.1,1.7,2.9,1.7,5.1c0,4.8-3.7,7.3-7.9,7.3l8.7,11.9h-3.2l-8.5-11.9
			h-6.3V84h-2.6V57.1H242.2z M234.4,69.9h8c3.2,0,6.7-0.8,6.7-5.2c0-0.5,0-1.8-0.8-3c-1.3-2.1-3.4-2.3-5.6-2.3h-8.3V69.9z"/>
      <path class="st3" d="M268,56.5c7.1,0,11.5,5.1,11.5,13.8c0,6.9-3.1,14.4-11.5,14.4c-9.2,0-11.6-8.4-11.6-14.2
			C256.4,65.5,258.4,56.5,268,56.5z M267.9,82.4c6.9,0,8.9-7,8.9-12.2c0-4.1-1.7-11.5-8.8-11.5c-6.7,0-8.9,6.4-8.9,11.9
			C259.1,74,260.2,82.4,267.9,82.4z"/>
      <path class="st3" d="M306.2,70v14H304v-4.5c-1.5,3.9-4.9,5.2-8.1,5.2c-8.2,0-11.4-7-11.4-13.9c0-6.1,2.7-14.3,12.1-14.3
			c6.8,0,8.9,4.4,9.9,6.8l-2.4,1.3c-0.8-3-2.9-6-7.3-6c-5.1,0-9.6,3.8-9.6,12.1c0,7.8,3.6,11.7,8.9,11.7c1.6,0,8-0.3,8-10.1h-9.9V70
			H306.2z"/>
      <path class="st3" d="M324.2,57.1c2.9,0,5.9,0.5,7.6,2.6c0.9,1.1,1.7,2.9,1.7,5.1c0,4.8-3.7,7.3-7.9,7.3l8.7,11.9h-3.2l-8.5-11.9
			h-6.3V84h-2.6V57.1H324.2z M316.3,69.9h8c3.2,0,6.7-0.8,6.7-5.2c0-0.5,0-1.8-0.8-3c-1.3-2.1-3.4-2.3-5.6-2.3h-8.3V69.9z"/>
      <path class="st3" d="M357.8,84l-3.1-8.1h-12l-3.1,8.1h-2.8l10.9-26.8h2.1L360.5,84H357.8z M348.8,60.1l-5.2,13.7h10.4L348.8,60.1z
			"/>
      <path class="st3" d="M386.7,84c0-0.6,0.2-22.8,0.2-22.8L378.1,84h-1.7l-8.9-22.8c0,0,0.3,22.4,0.3,22.8h-2.5V57.1h3l9.1,22.8
			l8.7-22.8h3.2V84H386.7z"/>
      <path class="st3" d="M418,84c0-0.6,0.2-22.8,0.2-22.8L409.4,84h-1.7l-8.9-22.8c0,0,0.3,22.4,0.3,22.8h-2.5V57.1h3l9.1,22.8
			l8.7-22.8h3.2V84H418z"/>
      <path class="st3" d="M427.8,84V57.1h2.5V84H427.8z"/>
      <path class="st3"
        d="M456,84l-15.7-23.2V84h-2.5V57.1h2.5l15.9,23c0,0-0.2-22.4-0.2-23h2.5V84H456z"/>
      <path class="st3" d="M486.4,70v14h-2.2v-4.5c-1.5,3.9-4.9,5.2-8.1,5.2c-8.2,0-11.4-7-11.4-13.9c0-6.1,2.7-14.3,12.1-14.3
			c6.8,0,8.9,4.4,9.9,6.8l-2.4,1.3c-0.8-3-2.9-6-7.3-6c-5.1,0-9.6,3.8-9.6,12.1c0,7.8,3.6,11.7,8.9,11.7c1.6,0,8-0.3,8-10.1h-9.9V70
			H486.4z"/>
	</g>
</g>
</svg>
