<svg enable-background="new 0 106.875 330 91.625" height="91.625" viewBox="0 106.875 330 91.625" width="330" xmlns="http://www.w3.org/2000/svg"><g fill="#008cd1"><path d="m49.865 108.682-49.868 87.813h27.426l6.955-12.71h31.174l2.185 12.71h27.624l-16.689-87.813zm-2.782 52.648 11.334-20.264 3.378 20.264z"/><path d="m159.731 108.682-27.02 49.867-8.145-49.867h-27.814l15.298 87.813h27.218l49.668-87.813z"/><path d="m305.756 109.079c-.396 0-.994-.199-1.391-.199-.992 0-1.986-.198-3.18-.198h-40.925l-11.126 63.178 15.298 24.636h7.55l4.371-25.231h7.152l11.523 25.231h29.209l-14.303-29.007c11.195-4.957 18.808-15.614 19.866-27.813-.032-.473.036-.947.198-1.391v-2.385c.196-15.497-9.539-25.232-24.242-26.821zm-13.708 40.529h-11.92l3.18-17.88h11.126c6.556 0 8.941 2.981 8.941 7.358-.002 6.549-3.777 10.522-11.327 10.522z"/></g><path d="m246.553 186.562-10.729-17.087-17.282-26.424c-2.007-2.416-3.189-5.408-3.379-8.542-.295-2.984 1.883-5.643 4.867-5.939.1-.01.199-.017.299-.021 3.775 0 4.768 2.781 4.768 5.365h26.025c.01-1.936-.19-3.868-.596-5.762-2.185-12.121-12.118-20.861-28.408-20.861-18.672 0-33.389 11.126-33.389 30.2-.022 3.199.584 6.372 1.784 9.338-9.944 5.167-16.21 15.415-16.276 26.622 0 15.297 10.926 24.636 28.609 24.636 7.23-.132 14.348-1.826 20.861-4.968l2.78 3.567h26.235zm-40.332-9.142c-3.581.359-6.776-2.251-7.137-5.832-.037-.373-.043-.749-.016-1.123-.055-2.6.949-5.109 2.78-6.954l9.735 13.112c-1.756.446-3.553.713-5.363.799v-.002z" fill="#939598"/></svg>